<svg width="382" height="382" viewBox="0 0 382 382" xmlns="http://www.w3.org/2000/svg"><defs>
  <clipPath id="k"><path d="M 10,10 L 90,10 L 90,110 L 290,10 L 290,90 L 165,150 L 290,210 L 290,290 L 90,190 L 90,290 L 10,290 Z"/></clipPath>
  <radialGradient id="bg" cx="50%" cy="50%" r="55%">
    <stop offset="0%"   stop-color="#d8d8d8"/>
    <stop offset="45%"  stop-color="#b0b0b0"/>
    <stop offset="100%" stop-color="#707070"/>
  </radialGradient>
  <filter id="sh" x="-15%" y="-15%" width="130%" height="130%">
    <feDropShadow dx="0" dy="6" stdDeviation="18" flood-color="#000" flood-opacity="0.35"/>
  </filter>
</defs><rect width="382" height="382" fill="url(#bg)" rx="24"/><g filter="url(#sh)"><path d="M 10,10 L 90,10 L 90,110 L 290,10 L 290,90 L 165,150 L 290,210 L 290,290 L 90,190 L 90,290 L 10,290 Z" fill="white"/><g clip-path="url(#k)"><rect x="17" y="17" width="12" height="12" fill="#111" rx="0.5"/><rect x="59" y="17" width="12" height="12" fill="#111" rx="0.5"/><rect x="87" y="17" width="12" height="12" fill="#111" rx="0.5"/><rect x="157" y="17" width="12" height="12" fill="#111" rx="0.5"/><rect x="171" y="17" width="12" height="12" fill="#111" rx="0.5"/><rect x="199" y="17" width="12" height="12" fill="#111" rx="0.5"/><rect x="255" y="17" width="12" height="12" fill="#111" rx="0.5"/><rect x="283" y="17" width="12" height="12" fill="#111" rx="0.5"/><rect x="297" y="17" width="12" height="12" fill="#111" rx="0.5"/><rect x="339" y="17" width="12" height="12" fill="#111" rx="0.5"/><rect x="353" y="17" width="12" height="12" fill="#111" rx="0.5"/><rect x="31" y="31" width="12" height="12" fill="#111" rx="0.5"/><rect x="59" y="31" width="12" height="12" fill="#111" rx="0.5"/><rect x="87" y="31" width="12" height="12" fill="#111" rx="0.5"/><rect x="129" y="31" width="12" height="12" fill="#111" rx="0.5"/><rect x="157" y="31" width="12" height="12" fill="#111" rx="0.5"/><rect x="199" y="31" width="12" height="12" fill="#111" rx="0.5"/><rect x="297" y="31" width="12" height="12" fill="#111" rx="0.5"/><rect x="17" y="45" width="12" height="12" fill="#111" rx="0.5"/><rect x="59" y="45" width="12" height="12" fill="#111" rx="0.5"/><rect x="115" y="45" width="12" height="12" fill="#111" rx="0.5"/><rect x="129" y="45" width="12" height="12" fill="#111" rx="0.5"/><rect x="143" y="45" width="12" height="12" fill="#111" rx="0.5"/><rect x="185" y="45" width="12" height="12" fill="#111" rx="0.5"/><rect x="227" y="45" width="12" height="12" fill="#111" rx="0.5"/><rect x="255" y="45" width="12" height="12" fill="#111" rx="0.5"/><rect x="283" y="45" width="12" height="12" fill="#111" rx="0.5"/><rect x="339" y="45" width="12" height="12" fill="#111" rx="0.5"/><rect x="17" y="59" width="12" height="12" fill="#111" rx="0.5"/><rect x="31" y="59" width="12" height="12" fill="#111" rx="0.5"/><rect x="45" y="59" width="12" height="12" fill="#111" rx="0.5"/><rect x="59" y="59" width="12" height="12" fill="#111" rx="0.5"/><rect x="73" y="59" width="12" height="12" fill="#111" rx="0.5"/><rect x="87" y="59" width="12" height="12" fill="#111" rx="0.5"/><rect x="129" y="59" width="12" height="12" fill="#111" rx="0.5"/><rect x="157" y="59" width="12" height="12" fill="#111" rx="0.5"/><rect x="185" y="59" width="12" height="12" fill="#111" rx="0.5"/><rect x="213" y="59" width="12" height="12" fill="#111" rx="0.5"/><rect x="227" y="59" width="12" height="12" fill="#111" rx="0.5"/><rect x="325" y="59" width="12" height="12" fill="#111" rx="0.5"/><rect x="353" y="59" width="12" height="12" fill="#111" rx="0.5"/><rect x="17" y="73" width="12" height="12" fill="#111" rx="0.5"/><rect x="73" y="73" width="12" height="12" fill="#111" rx="0.5"/><rect x="87" y="73" width="12" height="12" fill="#111" rx="0.5"/><rect x="101" y="73" width="12" height="12" fill="#111" rx="0.5"/><rect x="115" y="73" width="12" height="12" fill="#111" rx="0.5"/><rect x="129" y="73" width="12" height="12" fill="#111" rx="0.5"/><rect x="157" y="73" width="12" height="12" fill="#111" rx="0.5"/><rect x="171" y="73" width="12" height="12" fill="#111" rx="0.5"/><rect x="185" y="73" width="12" height="12" fill="#111" rx="0.5"/><rect x="269" y="73" width="12" height="12" fill="#111" rx="0.5"/><rect x="283" y="73" width="12" height="12" fill="#111" rx="0.5"/><rect x="45" y="87" width="12" height="12" fill="#111" rx="0.5"/><rect x="59" y="87" width="12" height="12" fill="#111" rx="0.5"/><rect x="73" y="87" width="12" height="12" fill="#111" rx="0.5"/><rect x="87" y="87" width="12" height="12" fill="#111" rx="0.5"/><rect x="101" y="87" width="12" height="12" fill="#111" rx="0.5"/><rect x="115" y="87" width="12" height="12" fill="#111" rx="0.5"/><rect x="199" y="87" width="12" height="12" fill="#111" rx="0.5"/><rect x="241" y="87" width="12" height="12" fill="#111" rx="0.5"/><rect x="269" y="87" width="12" height="12" fill="#111" rx="0.5"/><rect x="283" y="87" width="12" height="12" fill="#111" rx="0.5"/><rect x="297" y="87" width="12" height="12" fill="#111" rx="0.5"/><rect x="353" y="87" width="12" height="12" fill="#111" rx="0.5"/><rect x="45" y="101" width="12" height="12" fill="#111" rx="0.5"/><rect x="101" y="101" width="12" height="12" fill="#111" rx="0.5"/><rect x="115" y="101" width="12" height="12" fill="#111" rx="0.5"/><rect x="143" y="101" width="12" height="12" fill="#111" rx="0.5"/><rect x="199" y="101" width="12" height="12" fill="#111" rx="0.5"/><rect x="213" y="101" width="12" height="12" fill="#111" rx="0.5"/><rect x="255" y="101" width="12" height="12" fill="#111" rx="0.5"/><rect x="297" y="101" width="12" height="12" fill="#111" rx="0.5"/><rect x="353" y="101" width="12" height="12" fill="#111" rx="0.5"/><rect x="115" y="115" width="12" height="12" fill="#111" rx="0.5"/><rect x="129" y="115" width="12" height="12" fill="#111" rx="0.5"/><rect x="171" y="115" width="12" height="12" fill="#111" rx="0.5"/><rect x="185" y="115" width="12" height="12" fill="#111" rx="0.5"/><rect x="199" y="115" width="12" height="12" fill="#111" rx="0.5"/><rect x="255" y="115" width="12" height="12" fill="#111" rx="0.5"/><rect x="269" y="115" width="12" height="12" fill="#111" rx="0.5"/><rect x="311" y="115" width="12" height="12" fill="#111" rx="0.5"/><rect x="325" y="115" width="12" height="12" fill="#111" rx="0.5"/><rect x="101" y="129" width="12" height="12" fill="#111" rx="0.5"/><rect x="115" y="129" width="12" height="12" fill="#111" rx="0.5"/><rect x="171" y="129" width="12" height="12" fill="#111" rx="0.5"/><rect x="185" y="129" width="12" height="12" fill="#111" rx="0.5"/><rect x="241" y="129" width="12" height="12" fill="#111" rx="0.5"/><rect x="283" y="129" width="12" height="12" fill="#111" rx="0.5"/><rect x="311" y="129" width="12" height="12" fill="#111" rx="0.5"/><rect x="17" y="143" width="12" height="12" fill="#111" rx="0.5"/><rect x="31" y="143" width="12" height="12" fill="#111" rx="0.5"/><rect x="59" y="143" width="12" height="12" fill="#111" rx="0.5"/><rect x="115" y="143" width="12" height="12" fill="#111" rx="0.5"/><rect x="157" y="143" width="12" height="12" fill="#111" rx="0.5"/><rect x="185" y="143" width="12" height="12" fill="#111" rx="0.5"/><rect x="213" y="143" width="12" height="12" fill="#111" rx="0.5"/><rect x="241" y="143" width="12" height="12" fill="#111" rx="0.5"/><rect x="255" y="143" width="12" height="12" fill="#111" rx="0.5"/><rect x="297" y="143" width="12" height="12" fill="#111" rx="0.5"/><rect x="311" y="143" width="12" height="12" fill="#111" rx="0.5"/><rect x="325" y="143" width="12" height="12" fill="#111" rx="0.5"/><rect x="339" y="143" width="12" height="12" fill="#111" rx="0.5"/><rect x="17" y="157" width="12" height="12" fill="#111" rx="0.5"/><rect x="59" y="157" width="12" height="12" fill="#111" rx="0.5"/><rect x="87" y="157" width="12" height="12" fill="#111" rx="0.5"/><rect x="115" y="157" width="12" height="12" fill="#111" rx="0.5"/><rect x="143" y="157" width="12" height="12" fill="#111" rx="0.5"/><rect x="157" y="157" width="12" height="12" fill="#111" rx="0.5"/><rect x="199" y="157" width="12" height="12" fill="#111" rx="0.5"/><rect x="269" y="157" width="12" height="12" fill="#111" rx="0.5"/><rect x="283" y="157" width="12" height="12" fill="#111" rx="0.5"/><rect x="325" y="157" width="12" height="12" fill="#111" rx="0.5"/><rect x="339" y="157" width="12" height="12" fill="#111" rx="0.5"/><rect x="353" y="157" width="12" height="12" fill="#111" rx="0.5"/><rect x="17" y="171" width="12" height="12" fill="#111" rx="0.5"/><rect x="45" y="171" width="12" height="12" fill="#111" rx="0.5"/><rect x="73" y="171" width="12" height="12" fill="#111" rx="0.5"/><rect x="101" y="171" width="12" height="12" fill="#111" rx="0.5"/><rect x="129" y="171" width="12" height="12" fill="#111" rx="0.5"/><rect x="143" y="171" width="12" height="12" fill="#111" rx="0.5"/><rect x="157" y="171" width="12" height="12" fill="#111" rx="0.5"/><rect x="171" y="171" width="12" height="12" fill="#111" rx="0.5"/><rect x="185" y="171" width="12" height="12" fill="#111" rx="0.5"/><rect x="199" y="171" width="12" height="12" fill="#111" rx="0.5"/><rect x="213" y="171" width="12" height="12" fill="#111" rx="0.5"/><rect x="227" y="171" width="12" height="12" fill="#111" rx="0.5"/><rect x="269" y="171" width="12" height="12" fill="#111" rx="0.5"/><rect x="283" y="171" width="12" height="12" fill="#111" rx="0.5"/><rect x="87" y="185" width="12" height="12" fill="#111" rx="0.5"/><rect x="101" y="185" width="12" height="12" fill="#111" rx="0.5"/><rect x="143" y="185" width="12" height="12" fill="#111" rx="0.5"/><rect x="185" y="185" width="12" height="12" fill="#111" rx="0.5"/><rect x="241" y="185" width="12" height="12" fill="#111" rx="0.5"/><rect x="255" y="185" width="12" height="12" fill="#111" rx="0.5"/><rect x="283" y="185" width="12" height="12" fill="#111" rx="0.5"/><rect x="339" y="185" width="12" height="12" fill="#111" rx="0.5"/><rect x="353" y="185" width="12" height="12" fill="#111" rx="0.5"/><rect x="45" y="199" width="12" height="12" fill="#111" rx="0.5"/><rect x="101" y="199" width="12" height="12" fill="#111" rx="0.5"/><rect x="115" y="199" width="12" height="12" fill="#111" rx="0.5"/><rect x="129" y="199" width="12" height="12" fill="#111" rx="0.5"/><rect x="143" y="199" width="12" height="12" fill="#111" rx="0.5"/><rect x="157" y="199" width="12" height="12" fill="#111" rx="0.5"/><rect x="185" y="199" width="12" height="12" fill="#111" rx="0.5"/><rect x="213" y="199" width="12" height="12" fill="#111" rx="0.5"/><rect x="227" y="199" width="12" height="12" fill="#111" rx="0.5"/><rect x="241" y="199" width="12" height="12" fill="#111" rx="0.5"/><rect x="297" y="199" width="12" height="12" fill="#111" rx="0.5"/><rect x="339" y="199" width="12" height="12" fill="#111" rx="0.5"/><rect x="31" y="213" width="12" height="12" fill="#111" rx="0.5"/><rect x="45" y="213" width="12" height="12" fill="#111" rx="0.5"/><rect x="129" y="213" width="12" height="12" fill="#111" rx="0.5"/><rect x="157" y="213" width="12" height="12" fill="#111" rx="0.5"/><rect x="171" y="213" width="12" height="12" fill="#111" rx="0.5"/><rect x="185" y="213" width="12" height="12" fill="#111" rx="0.5"/><rect x="199" y="213" width="12" height="12" fill="#111" rx="0.5"/><rect x="241" y="213" width="12" height="12" fill="#111" rx="0.5"/><rect x="283" y="213" width="12" height="12" fill="#111" rx="0.5"/><rect x="297" y="213" width="12" height="12" fill="#111" rx="0.5"/><rect x="339" y="213" width="12" height="12" fill="#111" rx="0.5"/><rect x="353" y="213" width="12" height="12" fill="#111" rx="0.5"/><rect x="17" y="227" width="12" height="12" fill="#111" rx="0.5"/><rect x="31" y="227" width="12" height="12" fill="#111" rx="0.5"/><rect x="45" y="227" width="12" height="12" fill="#111" rx="0.5"/><rect x="59" y="227" width="12" height="12" fill="#111" rx="0.5"/><rect x="73" y="227" width="12" height="12" fill="#111" rx="0.5"/><rect x="185" y="227" width="12" height="12" fill="#111" rx="0.5"/><rect x="199" y="227" width="12" height="12" fill="#111" rx="0.5"/><rect x="241" y="227" width="12" height="12" fill="#111" rx="0.5"/><rect x="255" y="227" width="12" height="12" fill="#111" rx="0.5"/><rect x="269" y="227" width="12" height="12" fill="#111" rx="0.5"/><rect x="311" y="227" width="12" height="12" fill="#111" rx="0.5"/><rect x="325" y="227" width="12" height="12" fill="#111" rx="0.5"/><rect x="31" y="241" width="12" height="12" fill="#111" rx="0.5"/><rect x="59" y="241" width="12" height="12" fill="#111" rx="0.5"/><rect x="157" y="241" width="12" height="12" fill="#111" rx="0.5"/><rect x="171" y="241" width="12" height="12" fill="#111" rx="0.5"/><rect x="185" y="241" width="12" height="12" fill="#111" rx="0.5"/><rect x="213" y="241" width="12" height="12" fill="#111" rx="0.5"/><rect x="283" y="241" width="12" height="12" fill="#111" rx="0.5"/><rect x="17" y="255" width="12" height="12" fill="#111" rx="0.5"/><rect x="59" y="255" width="12" height="12" fill="#111" rx="0.5"/><rect x="101" y="255" width="12" height="12" fill="#111" rx="0.5"/><rect x="115" y="255" width="12" height="12" fill="#111" rx="0.5"/><rect x="129" y="255" width="12" height="12" fill="#111" rx="0.5"/><rect x="185" y="255" width="12" height="12" fill="#111" rx="0.5"/><rect x="213" y="255" width="12" height="12" fill="#111" rx="0.5"/><rect x="227" y="255" width="12" height="12" fill="#111" rx="0.5"/><rect x="241" y="255" width="12" height="12" fill="#111" rx="0.5"/><rect x="283" y="255" width="12" height="12" fill="#111" rx="0.5"/><rect x="311" y="255" width="12" height="12" fill="#111" rx="0.5"/><rect x="325" y="255" width="12" height="12" fill="#111" rx="0.5"/><rect x="339" y="255" width="12" height="12" fill="#111" rx="0.5"/><rect x="353" y="255" width="12" height="12" fill="#111" rx="0.5"/><rect x="17" y="269" width="12" height="12" fill="#111" rx="0.5"/><rect x="31" y="269" width="12" height="12" fill="#111" rx="0.5"/><rect x="59" y="269" width="12" height="12" fill="#111" rx="0.5"/><rect x="87" y="269" width="12" height="12" fill="#111" rx="0.5"/><rect x="115" y="269" width="12" height="12" fill="#111" rx="0.5"/><rect x="143" y="269" width="12" height="12" fill="#111" rx="0.5"/><rect x="157" y="269" width="12" height="12" fill="#111" rx="0.5"/><rect x="171" y="269" width="12" height="12" fill="#111" rx="0.5"/><rect x="227" y="269" width="12" height="12" fill="#111" rx="0.5"/><rect x="45" y="283" width="12" height="12" fill="#111" rx="0.5"/><rect x="115" y="283" width="12" height="12" fill="#111" rx="0.5"/><rect x="129" y="283" width="12" height="12" fill="#111" rx="0.5"/><rect x="171" y="283" width="12" height="12" fill="#111" rx="0.5"/><rect x="199" y="283" width="12" height="12" fill="#111" rx="0.5"/><rect x="227" y="283" width="12" height="12" fill="#111" rx="0.5"/><rect x="325" y="283" width="12" height="12" fill="#111" rx="0.5"/><rect x="31" y="297" width="12" height="12" fill="#111" rx="0.5"/><rect x="45" y="297" width="12" height="12" fill="#111" rx="0.5"/><rect x="59" y="297" width="12" height="12" fill="#111" rx="0.5"/><rect x="101" y="297" width="12" height="12" fill="#111" rx="0.5"/><rect x="157" y="297" width="12" height="12" fill="#111" rx="0.5"/><rect x="199" y="297" width="12" height="12" fill="#111" rx="0.5"/><rect x="213" y="297" width="12" height="12" fill="#111" rx="0.5"/><rect x="269" y="297" width="12" height="12" fill="#111" rx="0.5"/><rect x="297" y="297" width="12" height="12" fill="#111" rx="0.5"/><rect x="325" y="297" width="12" height="12" fill="#111" rx="0.5"/><rect x="353" y="297" width="12" height="12" fill="#111" rx="0.5"/><rect x="31" y="311" width="12" height="12" fill="#111" rx="0.5"/><rect x="115" y="311" width="12" height="12" fill="#111" rx="0.5"/><rect x="129" y="311" width="12" height="12" fill="#111" rx="0.5"/><rect x="199" y="311" width="12" height="12" fill="#111" rx="0.5"/><rect x="311" y="311" width="12" height="12" fill="#111" rx="0.5"/><rect x="87" y="325" width="12" height="12" fill="#111" rx="0.5"/><rect x="101" y="325" width="12" height="12" fill="#111" rx="0.5"/><rect x="171" y="325" width="12" height="12" fill="#111" rx="0.5"/><rect x="199" y="325" width="12" height="12" fill="#111" rx="0.5"/><rect x="213" y="325" width="12" height="12" fill="#111" rx="0.5"/><rect x="269" y="325" width="12" height="12" fill="#111" rx="0.5"/><rect x="283" y="325" width="12" height="12" fill="#111" rx="0.5"/><rect x="297" y="325" width="12" height="12" fill="#111" rx="0.5"/><rect x="311" y="325" width="12" height="12" fill="#111" rx="0.5"/><rect x="73" y="339" width="12" height="12" fill="#111" rx="0.5"/><rect x="87" y="339" width="12" height="12" fill="#111" rx="0.5"/><rect x="101" y="339" width="12" height="12" fill="#111" rx="0.5"/><rect x="143" y="339" width="12" height="12" fill="#111" rx="0.5"/><rect x="185" y="339" width="12" height="12" fill="#111" rx="0.5"/><rect x="241" y="339" width="12" height="12" fill="#111" rx="0.5"/><rect x="297" y="339" width="12" height="12" fill="#111" rx="0.5"/><rect x="311" y="339" width="12" height="12" fill="#111" rx="0.5"/><rect x="325" y="339" width="12" height="12" fill="#111" rx="0.5"/><rect x="353" y="339" width="12" height="12" fill="#111" rx="0.5"/><rect x="59" y="353" width="12" height="12" fill="#111" rx="0.5"/><rect x="73" y="353" width="12" height="12" fill="#111" rx="0.5"/><rect x="101" y="353" width="12" height="12" fill="#111" rx="0.5"/><rect x="143" y="353" width="12" height="12" fill="#111" rx="0.5"/><rect x="227" y="353" width="12" height="12" fill="#111" rx="0.5"/><rect x="241" y="353" width="12" height="12" fill="#111" rx="0.5"/><rect x="283" y="353" width="12" height="12" fill="#111" rx="0.5"/><rect x="297" y="353" width="12" height="12" fill="#111" rx="0.5"/><rect x="325" y="353" width="12" height="12" fill="#111" rx="0.5"/><rect x="339" y="353" width="12" height="12" fill="#111" rx="0.5"/><rect x="353" y="353" width="12" height="12" fill="#111" rx="0.5"/><rect x="17" y="17" width="12" height="12" fill="#111" rx="0.5"/><rect x="31" y="17" width="12" height="12" fill="#111" rx="0.5"/><rect x="45" y="17" width="12" height="12" fill="#111" rx="0.5"/><rect x="59" y="17" width="12" height="12" fill="#111" rx="0.5"/><rect x="73" y="17" width="12" height="12" fill="#111" rx="0.5"/><rect x="87" y="17" width="12" height="12" fill="#111" rx="0.5"/><rect x="101" y="17" width="12" height="12" fill="#111" rx="0.5"/><rect x="17" y="31" width="12" height="12" fill="#111" rx="0.5"/><rect x="31" y="31" width="12" height="12" fill="white"/><rect x="45" y="31" width="12" height="12" fill="white"/><rect x="59" y="31" width="12" height="12" fill="white"/><rect x="73" y="31" width="12" height="12" fill="white"/><rect x="87" y="31" width="12" height="12" fill="white"/><rect x="101" y="31" width="12" height="12" fill="#111" rx="0.5"/><rect x="17" y="45" width="12" height="12" fill="#111" rx="0.5"/><rect x="31" y="45" width="12" height="12" fill="white"/><rect x="45" y="45" width="12" height="12" fill="#111" rx="0.5"/><rect x="59" y="45" width="12" height="12" fill="#111" rx="0.5"/><rect x="73" y="45" width="12" height="12" fill="#111" rx="0.5"/><rect x="87" y="45" width="12" height="12" fill="white"/><rect x="101" y="45" width="12" height="12" fill="#111" rx="0.5"/><rect x="17" y="59" width="12" height="12" fill="#111" rx="0.5"/><rect x="31" y="59" width="12" height="12" fill="white"/><rect x="45" y="59" width="12" height="12" fill="#111" rx="0.5"/><rect x="59" y="59" width="12" height="12" fill="#111" rx="0.5"/><rect x="73" y="59" width="12" height="12" fill="#111" rx="0.5"/><rect x="87" y="59" width="12" height="12" fill="white"/><rect x="101" y="59" width="12" height="12" fill="#111" rx="0.5"/><rect x="17" y="73" width="12" height="12" fill="#111" rx="0.5"/><rect x="31" y="73" width="12" height="12" fill="white"/><rect x="45" y="73" width="12" height="12" fill="#111" rx="0.5"/><rect x="59" y="73" width="12" height="12" fill="#111" rx="0.5"/><rect x="73" y="73" width="12" height="12" fill="#111" rx="0.5"/><rect x="87" y="73" width="12" height="12" fill="white"/><rect x="101" y="73" width="12" height="12" fill="#111" rx="0.5"/><rect x="17" y="87" width="12" height="12" fill="#111" rx="0.5"/><rect x="31" y="87" width="12" height="12" fill="white"/><rect x="45" y="87" width="12" height="12" fill="white"/><rect x="59" y="87" width="12" height="12" fill="white"/><rect x="73" y="87" width="12" height="12" fill="white"/><rect x="87" y="87" width="12" height="12" fill="white"/><rect x="101" y="87" width="12" height="12" fill="#111" rx="0.5"/><rect x="17" y="101" width="12" height="12" fill="#111" rx="0.5"/><rect x="31" y="101" width="12" height="12" fill="#111" rx="0.5"/><rect x="45" y="101" width="12" height="12" fill="#111" rx="0.5"/><rect x="59" y="101" width="12" height="12" fill="#111" rx="0.5"/><rect x="73" y="101" width="12" height="12" fill="#111" rx="0.5"/><rect x="87" y="101" width="12" height="12" fill="#111" rx="0.5"/><rect x="101" y="101" width="12" height="12" fill="#111" rx="0.5"/><rect x="269" y="17" width="12" height="12" fill="#111" rx="0.5"/><rect x="283" y="17" width="12" height="12" fill="#111" rx="0.5"/><rect x="297" y="17" width="12" height="12" fill="#111" rx="0.5"/><rect x="311" y="17" width="12" height="12" fill="#111" rx="0.5"/><rect x="325" y="17" width="12" height="12" fill="#111" rx="0.5"/><rect x="339" y="17" width="12" height="12" fill="#111" rx="0.5"/><rect x="353" y="17" width="12" height="12" fill="#111" rx="0.5"/><rect x="269" y="31" width="12" height="12" fill="#111" rx="0.5"/><rect x="283" y="31" width="12" height="12" fill="white"/><rect x="297" y="31" width="12" height="12" fill="white"/><rect x="311" y="31" width="12" height="12" fill="white"/><rect x="325" y="31" width="12" height="12" fill="white"/><rect x="339" y="31" width="12" height="12" fill="white"/><rect x="353" y="31" width="12" height="12" fill="#111" rx="0.5"/><rect x="269" y="45" width="12" height="12" fill="#111" rx="0.5"/><rect x="283" y="45" width="12" height="12" fill="white"/><rect x="297" y="45" width="12" height="12" fill="#111" rx="0.5"/><rect x="311" y="45" width="12" height="12" fill="#111" rx="0.5"/><rect x="325" y="45" width="12" height="12" fill="#111" rx="0.5"/><rect x="339" y="45" width="12" height="12" fill="white"/><rect x="353" y="45" width="12" height="12" fill="#111" rx="0.5"/><rect x="269" y="59" width="12" height="12" fill="#111" rx="0.5"/><rect x="283" y="59" width="12" height="12" fill="white"/><rect x="297" y="59" width="12" height="12" fill="#111" rx="0.5"/><rect x="311" y="59" width="12" height="12" fill="#111" rx="0.5"/><rect x="325" y="59" width="12" height="12" fill="#111" rx="0.5"/><rect x="339" y="59" width="12" height="12" fill="white"/><rect x="353" y="59" width="12" height="12" fill="#111" rx="0.5"/><rect x="269" y="73" width="12" height="12" fill="#111" rx="0.5"/><rect x="283" y="73" width="12" height="12" fill="white"/><rect x="297" y="73" width="12" height="12" fill="#111" rx="0.5"/><rect x="311" y="73" width="12" height="12" fill="#111" rx="0.5"/><rect x="325" y="73" width="12" height="12" fill="#111" rx="0.5"/><rect x="339" y="73" width="12" height="12" fill="white"/><rect x="353" y="73" width="12" height="12" fill="#111" rx="0.5"/><rect x="269" y="87" width="12" height="12" fill="#111" rx="0.5"/><rect x="283" y="87" width="12" height="12" fill="white"/><rect x="297" y="87" width="12" height="12" fill="white"/><rect x="311" y="87" width="12" height="12" fill="white"/><rect x="325" y="87" width="12" height="12" fill="white"/><rect x="339" y="87" width="12" height="12" fill="white"/><rect x="353" y="87" width="12" height="12" fill="#111" rx="0.5"/><rect x="269" y="101" width="12" height="12" fill="#111" rx="0.5"/><rect x="283" y="101" width="12" height="12" fill="#111" rx="0.5"/><rect x="297" y="101" width="12" height="12" fill="#111" rx="0.5"/><rect x="311" y="101" width="12" height="12" fill="#111" rx="0.5"/><rect x="325" y="101" width="12" height="12" fill="#111" rx="0.5"/><rect x="339" y="101" width="12" height="12" fill="#111" rx="0.5"/><rect x="353" y="101" width="12" height="12" fill="#111" rx="0.5"/><rect x="17" y="269" width="12" height="12" fill="#111" rx="0.5"/><rect x="31" y="269" width="12" height="12" fill="#111" rx="0.5"/><rect x="45" y="269" width="12" height="12" fill="#111" rx="0.5"/><rect x="59" y="269" width="12" height="12" fill="#111" rx="0.5"/><rect x="73" y="269" width="12" height="12" fill="#111" rx="0.5"/><rect x="87" y="269" width="12" height="12" fill="#111" rx="0.5"/><rect x="101" y="269" width="12" height="12" fill="#111" rx="0.5"/><rect x="17" y="283" width="12" height="12" fill="#111" rx="0.5"/><rect x="31" y="283" width="12" height="12" fill="white"/><rect x="45" y="283" width="12" height="12" fill="white"/><rect x="59" y="283" width="12" height="12" fill="white"/><rect x="73" y="283" width="12" height="12" fill="white"/><rect x="87" y="283" width="12" height="12" fill="white"/><rect x="101" y="283" width="12" height="12" fill="#111" rx="0.5"/><rect x="17" y="297" width="12" height="12" fill="#111" rx="0.5"/><rect x="31" y="297" width="12" height="12" fill="white"/><rect x="45" y="297" width="12" height="12" fill="#111" rx="0.5"/><rect x="59" y="297" width="12" height="12" fill="#111" rx="0.5"/><rect x="73" y="297" width="12" height="12" fill="#111" rx="0.5"/><rect x="87" y="297" width="12" height="12" fill="white"/><rect x="101" y="297" width="12" height="12" fill="#111" rx="0.5"/><rect x="17" y="311" width="12" height="12" fill="#111" rx="0.5"/><rect x="31" y="311" width="12" height="12" fill="white"/><rect x="45" y="311" width="12" height="12" fill="#111" rx="0.5"/><rect x="59" y="311" width="12" height="12" fill="#111" rx="0.5"/><rect x="73" y="311" width="12" height="12" fill="#111" rx="0.5"/><rect x="87" y="311" width="12" height="12" fill="white"/><rect x="101" y="311" width="12" height="12" fill="#111" rx="0.5"/><rect x="17" y="325" width="12" height="12" fill="#111" rx="0.5"/><rect x="31" y="325" width="12" height="12" fill="white"/><rect x="45" y="325" width="12" height="12" fill="#111" rx="0.5"/><rect x="59" y="325" width="12" height="12" fill="#111" rx="0.5"/><rect x="73" y="325" width="12" height="12" fill="#111" rx="0.5"/><rect x="87" y="325" width="12" height="12" fill="white"/><rect x="101" y="325" width="12" height="12" fill="#111" rx="0.5"/><rect x="17" y="339" width="12" height="12" fill="#111" rx="0.5"/><rect x="31" y="339" width="12" height="12" fill="white"/><rect x="45" y="339" width="12" height="12" fill="white"/><rect x="59" y="339" width="12" height="12" fill="white"/><rect x="73" y="339" width="12" height="12" fill="white"/><rect x="87" y="339" width="12" height="12" fill="white"/><rect x="101" y="339" width="12" height="12" fill="#111" rx="0.5"/><rect x="17" y="353" width="12" height="12" fill="#111" rx="0.5"/><rect x="31" y="353" width="12" height="12" fill="#111" rx="0.5"/><rect x="45" y="353" width="12" height="12" fill="#111" rx="0.5"/><rect x="59" y="353" width="12" height="12" fill="#111" rx="0.5"/><rect x="73" y="353" width="12" height="12" fill="#111" rx="0.5"/><rect x="87" y="353" width="12" height="12" fill="#111" rx="0.5"/><rect x="101" y="353" width="12" height="12" fill="#111" rx="0.5"/></g><path d="M 10,10 L 90,10 L 90,110 L 290,10 L 290,90 L 165,150 L 290,210 L 290,290 L 90,190 L 90,290 L 10,290 Z" fill="none" stroke="white" stroke-width="5"/></g></svg>